<?xml version="1.0" encoding="UTF-8"?><svg id="Layer_1" xmlns="http://www.w3.org/2000/svg" viewBox="0 0 217.02 187.59"><defs><style>.cls-1{fill:#d63f40;}</style></defs><path class="cls-1" d="M77.21,80.7C93.1,53.22,108.39,26.9,123.94,0c5.22,9.06,10.19,17.54,15.25,26.33-20.54,35.6-41.05,71.15-61.98,107.41C51.23,89.07,25.84,44.77,0,.03H92.03c-5.07,8.76-9.95,17.19-14.86,25.68-10.37,.44-20.47-.11-31.52,.33,10.55,18.55,20.74,36.18,31.56,54.66Z"/><path class="cls-1" d="M217.02,.02c-25.73,44.59-51.67,89.01-77.48,133.74-5.28-9.19-10.23-17.79-15.29-26.59,15.52-26.86,30.99-53.63,46.71-80.81-4.93-8.61-10.35-17.71-15.31-26.36,3.75,0,54.37,.02,61.37,.02Z"/><path class="cls-1" d="M108.35,134.83c5.42,9.38,10.22,17.69,15.25,26.41-4.91,8.51-10.08,17.3-15.3,26.35-2.59-4.55-5.16-9-7.75-13.43-2.36-4.15-4.8-8.32-7.44-12.92,4.89-8.46,9.81-17,15.25-26.41Z"/></svg>